<?xml version="1.0" encoding="iso-8859-1"?>
<!-- Generator: Adobe Illustrator 19.0.0, SVG Export Plug-In . SVG Version: 6.00 Build 0)  -->
<svg version="1.1" id="Layer_1" xmlns="http://www.w3.org/2000/svg" xmlns:xlink="http://www.w3.org/1999/xlink" x="0px" y="0px"
	 viewBox="0 0 297.001 297.001" style="enable-background:new 0 0 297.001 297.001;" xml:space="preserve">
<g>
	<g>
		<g>
			<path style="fill:#777777;" d="M265.469,87.982h-43.736V35.6c0-17.386-14.144-31.531-31.531-31.531H31.531C14.144,4.069,0,18.214,0,35.6v91.541
				c0,17.386,14.144,31.531,31.531,31.531h43.736v52.382c0,17.386,14.144,31.531,31.531,31.531h24.775l47.369,47.369
				c1.946,1.946,4.547,2.979,7.194,2.979c1.31,0,2.632-0.253,3.891-0.774c3.8-1.574,6.279-5.283,6.279-9.397v-40.176h69.164
				c17.386,0,31.531-14.144,31.531-31.531v-91.541C297,102.126,282.856,87.982,265.469,87.982z M31.531,138.329
				c-6.169,0-11.189-5.019-11.189-11.189V35.6c0-6.169,5.019-11.188,11.188-11.188h158.671c6.169,0,11.188,5.019,11.188,11.188
				v91.541c0,6.169-5.019,11.188-11.188,11.188H169.35c-2.698,0-5.284,1.072-7.192,2.979l-32.984,32.984v-25.791
				c0-5.617-4.554-10.171-10.171-10.171H31.531z M276.66,211.053h-0.002c0,6.169-5.019,11.188-11.188,11.188h-79.336
				c-5.617,0-10.171,4.554-10.171,10.171v25.792l-32.984-32.984c-1.908-1.907-4.495-2.979-7.192-2.979h-28.988
				c-6.169,0-11.188-5.019-11.188-11.188v-52.382h13.223v40.176c0,4.114,2.478,7.823,6.279,9.397
				c1.258,0.52,2.581,0.774,3.891,0.774c2.647,0,5.249-1.033,7.194-2.979l47.369-47.369h16.638
				c17.386,0,31.531-14.144,31.531-31.531v-18.817h43.736c6.169,0,11.188,5.019,11.188,11.188V211.053z"/>
			<path style="fill:#777777;" d="M43.736,55.943h134.26c4.494,0,8.137-3.643,8.137-8.137s-3.643-8.137-8.137-8.137H43.736
				c-4.494,0-8.137,3.643-8.137,8.137S39.243,55.943,43.736,55.943z"/>
			<path style="fill:#777777;" d="M43.736,89.508h134.26c4.494,0,8.137-3.643,8.137-8.137s-3.643-8.137-8.137-8.137H43.736
				c-4.494,0-8.137,3.643-8.137,8.137C35.599,85.863,39.243,89.508,43.736,89.508z"/>
			<path style="fill:#777777;"  d="M110.866,106.798h-67.13c-4.494,0-8.137,3.643-8.137,8.137s3.643,8.137,8.137,8.137h67.13
				c4.494,0,8.137-3.643,8.137-8.137S115.36,106.798,110.866,106.798z"/>
			<path  style="fill:#777777;" d="M177.997,106.798h-33.565c-4.494,0-8.137,3.643-8.137,8.137s3.643,8.137,8.137,8.137h33.565
				c4.494,0,8.137-3.643,8.137-8.137C186.134,110.441,182.49,106.798,177.997,106.798z"/>
			<path style="fill:#777777;" d="M253.264,173.928h-67.13c-4.494,0-8.137,3.643-8.137,8.137c0,4.494,3.643,8.137,8.137,8.137h67.13
				c4.494,0,8.137-3.643,8.137-8.137C261.401,177.572,257.757,173.928,253.264,173.928z"/>
		</g>
	</g>
</g>
<g>
</g>
<g>
</g>
<g>
</g>
<g>
</g>
<g>
</g>
<g>
</g>
<g>
</g>
<g>
</g>
<g>
</g>
<g>
</g>
<g>
</g>
<g>
</g>
<g>
</g>
<g>
</g>
<g>
</g>
</svg>
